HIERARCHY
ROOT joint_Root
{
	OFFSET 0.0 0.0 0.0
	CHANNELS 6 Xposition Yposition Zposition Zrotation Xrotation Yrotation 
	JOINT Hips
	{
		OFFSET -17.1583 93.1646 452.98
		CHANNELS 6 Xposition Yposition Zposition Zrotation Xrotation Yrotation 
		JOINT Spine
		{
			OFFSET 15.7357 0.0 0.0
			CHANNELS 6 Xposition Yposition Zposition Zrotation Xrotation Yrotation 
			JOINT Chest
			{
				OFFSET 8.98455 -0.406207 0.0
				CHANNELS 6 Xposition Yposition Zposition Zrotation Xrotation Yrotation 
				JOINT Neck
				{
					OFFSET 16.3773 0.0 0.0
					CHANNELS 6 Xposition Yposition Zposition Zrotation Xrotation Yrotation 
					JOINT Head
					{
						OFFSET 6.45672 0.0 0.0
						CHANNELS 6 Xposition Yposition Zposition Zrotation Xrotation Yrotation 
						End Site
						{
							OFFSET 0.0 0.0 0.0
						}
					}
				}
				JOINT Shoulder_L
				{
					OFFSET 12.9942 -0.242716 4.98039
					CHANNELS 6 Xposition Yposition Zposition Zrotation Xrotation Yrotation 
					JOINT UpperArm_L
					{
						OFFSET 5.34809 0.0 0.0
						CHANNELS 6 Xposition Yposition Zposition Zrotation Xrotation Yrotation 
						JOINT LowerArm_L
						{
							OFFSET 24.3286 1.87007e-05 0.0
							CHANNELS 6 Xposition Yposition Zposition Zrotation Xrotation Yrotation 
							JOINT Hand_L
							{
								OFFSET 22.2916 0.0 0.0
								CHANNELS 6 Xposition Yposition Zposition Zrotation Xrotation Yrotation 
								End Site
								{
									OFFSET 0.0 0.0 0.0
								}
							}
						}
					}
				}
				JOINT Shoulder_R
				{
					OFFSET 12.9945 -0.242716 -4.98039
					CHANNELS 6 Xposition Yposition Zposition Zrotation Xrotation Yrotation 
					JOINT UpperArm_R
					{
						OFFSET -5.34813 0.0 0.0
						CHANNELS 6 Xposition Yposition Zposition Zrotation Xrotation Yrotation 
						JOINT LowerArm_R
						{
							OFFSET -24.3289 0.000322201 0.0
							CHANNELS 6 Xposition Yposition Zposition Zrotation Xrotation Yrotation 
							JOINT Hand_R
							{
								OFFSET -22.2915 -0.000108084 0.0
								CHANNELS 6 Xposition Yposition Zposition Zrotation Xrotation Yrotation 
								End Site
								{
									OFFSET 0.0 0.0 0.0
								}
							}
						}
					}
				}
			}
		}
		JOINT UpperLeg_L
		{
			OFFSET -2.19248 -6.46944 0.0
			CHANNELS 6 Xposition Yposition Zposition Zrotation Xrotation Yrotation 
			JOINT LowerLeg_L
			{
				OFFSET 39.0811 0.0 -1.23785e-05
				CHANNELS 6 Xposition Yposition Zposition Zrotation Xrotation Yrotation 
				JOINT Foot_L
				{
					OFFSET 40.9854 0.0 -1.26872e-05
					CHANNELS 6 Xposition Yposition Zposition Zrotation Xrotation Yrotation 
					JOINT Toes_L
					{
						OFFSET 11.7543 0.0 0.0
						CHANNELS 6 Xposition Yposition Zposition Zrotation Xrotation Yrotation 
						End Site
						{
							OFFSET 0.0 0.0 0.0
						}
					}
				}
			}
		}
		JOINT UpperLeg_R
		{
			OFFSET -2.19251 6.46944 0.0
			CHANNELS 6 Xposition Yposition Zposition Zrotation Xrotation Yrotation 
			JOINT LowerLeg_R
			{
				OFFSET -39.0811 -0.00228153 -0.0401928
				CHANNELS 6 Xposition Yposition Zposition Zrotation Xrotation Yrotation 
				JOINT Foot_R
				{
					OFFSET -40.9854 0.0 0.0
					CHANNELS 6 Xposition Yposition Zposition Zrotation Xrotation Yrotation 
					JOINT Toes_R
					{
						OFFSET -11.7543 0.0 0.0
						CHANNELS 6 Xposition Yposition Zposition Zrotation Xrotation Yrotation 
						End Site
						{
							OFFSET 0.0 0.0 0.0
						}
					}
				}
			}
		}
	}
}
MOTION
Frames:	4
Frame Time:	0.0333333
0.000000 0.000000 0.000000 0.000000 0.000000 -0.000000 -1.422220 92.996000 -0.099142 86.568800 -1.156730 3.600970 15.735700 0.000005 -0.000001 88.402900 87.481400 -93.630700 8.984550 -0.406207 -0.000000 -2.693940 0.336031 -10.448100 16.377300 -0.000001 -0.000001 5.129220 3.060600 -9.955460 6.456720 -0.000001 -0.000000 -11.102500 11.405200 -19.896800 12.994200 -0.242716 4.980390 -93.646400 9.978490 -69.808000 5.348090 -0.000007 -0.000001 -56.603900 -2.194240 1.320080 24.328600 0.000019 0.000005 11.448300 29.259500 -22.505800 22.291600 -0.000001 0.000005 2.718790 4.940010 8.570180 12.994500 -0.242716 -4.980390 93.425300 -5.842390 -59.544200 -5.348130 -0.000001 -0.000004 -63.856200 -62.727300 -110.009000 -24.328900 0.000322 -0.000009 -0.000999 -15.351900 -0.000086 -22.291500 -0.000108 -0.000004 28.017500 5.438350 -4.228210 -2.192480 -6.469440 -0.000000 -170.617000 -8.719710 1.134760 39.081100 -0.000007 -0.000012 -0.024418 0.078253 17.330000 40.985400 -0.000006 -0.000013 -0.578946 16.190500 -69.281300 11.754300 -0.000000 0.000003 -0.002218 0.199049 -8.500930 -2.192510 6.469440 -0.000001 177.566000 6.666480 -176.306000 -39.081100 -0.002282 -0.040193 -0.008814 0.060876 11.287800 -40.985400 0.000008 0.000006 -7.337250 13.751900 -65.551500 -11.754300 -0.000006 -0.000006 -0.007803 0.254088 -6.254600
0.000000 0.000000 0.000000 0.000000 0.000000 -0.000000 -1.448930 93.011300 -0.133581 86.606900 -1.094190 3.507200 15.735700 0.000005 -0.000001 88.319900 87.474700 -93.522900 8.984550 -0.406207 -0.000000 -2.681480 0.325537 -10.398700 16.377300 -0.000001 -0.000001 5.213390 3.036230 -9.927050 6.456720 -0.000001 -0.000000 -11.078100 11.377700 -19.824800 12.994200 -0.242716 4.980390 -93.631400 9.931530 -69.797600 5.348090 -0.000007 -0.000001 -56.593000 -2.289920 1.333820 24.328600 0.000019 0.000005 11.510900 29.206200 -22.653400 22.291600 -0.000001 0.000005 2.636660 4.942000 8.529360 12.994500 -0.242716 -4.980390 93.412500 -5.826840 -59.571900 -5.348130 -0.000001 -0.000004 -63.673000 -62.713800 -109.754000 -24.328900 0.000322 -0.000009 -0.001000 -15.542100 -0.000087 -22.291500 -0.000108 -0.000004 27.927900 5.436180 -4.152540 -2.192480 -6.469440 -0.000000 -170.626000 -8.846810 1.099290 39.081100 -0.000007 -0.000012 -0.025292 0.081900 17.161200 40.985400 -0.000006 -0.000013 -0.593228 16.399000 -69.189600 11.754300 -0.000000 0.000003 -0.002107 0.197674 -8.556850 -2.192510 6.469440 -0.000001 177.587000 6.563800 -176.390000 -39.081100 -0.002282 -0.040193 -0.008537 0.059854 11.220900 -40.985400 0.000008 0.000006 -7.371730 13.544700 -65.508900 -11.754300 -0.000006 -0.000006 -0.007677 0.253042 -6.297310
0.000000 0.000000 0.000000 0.000000 0.000000 -0.000000 -1.473870 93.021500 -0.169372 86.605900 -1.021690 3.400590 15.735700 0.000005 -0.000001 87.953900 87.467200 -93.107700 8.984550 -0.406207 -0.000000 -2.669890 0.287778 -10.301200 16.377300 -0.000001 -0.000001 5.251030 3.045690 -9.913370 6.456720 -0.000001 -0.000000 -11.028500 11.340000 -19.824300 12.994200 -0.242716 4.980390 -93.639100 9.921590 -69.739700 5.348090 -0.000007 -0.000001 -56.645600 -2.398590 1.358680 24.328600 0.000019 0.000005 11.581100 29.260400 -22.746400 22.291600 -0.000001 0.000005 2.741570 4.944180 8.484240 12.994500 -0.242716 -4.980390 93.402000 -5.812690 -59.588100 -5.348130 -0.000001 -0.000004 -63.597800 -62.663500 -109.638000 -24.328900 0.000322 -0.000009 -0.001000 -15.577800 -0.000087 -22.291500 -0.000108 -0.000004 27.934900 5.437690 -4.206260 -2.192480 -6.469440 -0.000000 -170.615000 -8.927450 0.969272 39.081100 -0.000007 -0.000012 -0.025381 0.082395 17.120800 40.985400 -0.000006 -0.000013 -0.605934 16.515400 -69.166200 11.754300 -0.000000 0.000003 -0.002148 0.198183 -8.536120 -2.192510 6.469440 -0.000001 177.642000 6.535370 -176.486000 -39.081100 -0.002282 -0.040193 -0.008058 0.057812 11.150100 -40.985400 0.000008 0.000006 -7.314200 13.435600 -65.475300 -11.754300 -0.000006 -0.000006 -0.007835 0.254351 -6.243870
0.000000 0.000000 0.000000 0.000000 0.000000 -0.000000 -1.512910 93.032500 -0.202508 86.628500 -0.933282 3.370470 15.735700 0.000005 -0.000001 87.747800 87.442700 -92.852800 8.984550 -0.406207 -0.000000 -2.623170 0.261142 -10.204200 16.377300 -0.000001 -0.000001 5.378440 3.019190 -9.903690 6.456720 -0.000001 -0.000000 -11.012400 11.276000 -19.891900 12.994200 -0.242716 4.980390 -93.625600 9.898380 -69.766100 5.348090 -0.000007 -0.000001 -56.764300 -2.493190 1.492290 24.328600 0.000019 0.000005 11.605600 29.304100 -22.762900 22.291600 -0.000001 0.000005 2.663330 4.945620 8.455090 12.994500 -0.242716 -4.980390 93.422100 -5.835810 -59.539600 -5.348130 -0.000001 -0.000004 -63.779900 -62.496700 -109.751000 -24.328900 0.000322 -0.000009 -0.001000 -15.585900 -0.000087 -22.291500 -0.000108 -0.000004 28.038500 5.433180 -4.048500 -2.192480 -6.469440 -0.000000 -170.625000 -8.859970 0.954577 39.081100 -0.000007 -0.000012 -0.025442 0.083180 17.006700 40.985400 -0.000006 -0.000013 -0.651247 16.536500 -69.085400 11.754300 -0.000000 0.000003 -0.002135 0.198020 -8.542770 -2.192510 6.469440 -0.000001 177.655000 6.572380 -176.505000 -39.081100 -0.002282 -0.040193 -0.007838 0.056962 11.099600 -40.985400 0.000008 0.000006 -7.267010 13.351700 -65.462100 -11.754300 -0.000006 -0.000006 -0.007724 0.253431 -6.281430
